<svg width="146" height="25" viewBox="0 0 146 25" fill="none" xmlns="http://www.w3.org/2000/svg">
<path d="M39.3 20.2C38.18 20.2 37.1467 20.0333 36.2 19.7C35.2533 19.3533 34.4333 18.8667 33.74 18.24C33.0467 17.6 32.5067 16.8333 32.12 15.94C31.7333 15.0467 31.54 14.0533 31.54 12.96C31.54 11.9333 31.7333 10.9867 32.12 10.12C32.52 9.24 33.08 8.48 33.8 7.84C34.5333 7.18667 35.3867 6.68 36.36 6.32C37.3333 5.96 38.4 5.78 39.56 5.78C40.4267 5.78 41.2333 5.88667 41.98 6.1C42.74 6.31333 43.42 6.59333 44.02 6.94C44.6333 7.28667 45.1333 7.67333 45.52 8.1L43.66 10.1C43.2867 9.78 42.88 9.5 42.44 9.26C42.0133 9.02 41.5533 8.83333 41.06 8.7C40.58 8.55333 40.0733 8.48 39.54 8.48C38.8467 8.48 38.2 8.59333 37.6 8.82C37.0133 9.04667 36.4933 9.36 36.04 9.76C35.6 10.16 35.2533 10.6333 35 11.18C34.76 11.7267 34.64 12.32 34.64 12.96C34.64 13.6667 34.7667 14.3 35.02 14.86C35.2867 15.42 35.6467 15.8933 36.1 16.28C36.5533 16.6667 37.0733 16.9667 37.66 17.18C38.26 17.38 38.9 17.48 39.58 17.48C40.1267 17.48 40.6467 17.4133 41.14 17.28C41.6467 17.1467 42.0867 16.96 42.46 16.72C42.8333 16.4667 43.12 16.1667 43.32 15.82C43.52 15.4733 43.6133 15.1067 43.6 14.72V14.3L44 14.92H39.32V12.44H46.52C46.5333 12.6133 46.5467 12.8 46.56 13C46.5867 13.2 46.6 13.3933 46.6 13.58C46.6133 13.7533 46.62 13.8867 46.62 13.98C46.62 14.94 46.4333 15.8067 46.06 16.58C45.7 17.3533 45.1933 18.0067 44.54 18.54C43.9 19.0733 43.1333 19.4867 42.24 19.78C41.3467 20.06 40.3667 20.2 39.3 20.2ZM48.5516 20L54.5916 6H57.4116L63.4316 20H60.3116L56.8916 11.98C56.7849 11.74 56.6716 11.4667 56.5516 11.16C56.4449 10.8533 56.3316 10.54 56.2116 10.22C56.1049 9.9 55.9982 9.58667 55.8916 9.28C55.7982 8.97333 55.7116 8.7 55.6316 8.46L56.2516 8.44C56.1716 8.74667 56.0782 9.05333 55.9716 9.36C55.8782 9.65333 55.7716 9.95333 55.6516 10.26C55.5449 10.5667 55.4316 10.8667 55.3116 11.16C55.1916 11.4533 55.0716 11.7467 54.9516 12.04L51.5316 20H48.5516ZM51.3116 17.14L52.3316 14.72H59.5116L60.2916 17.14H51.3116ZM68.945 20V8.7H64.305V6H76.705V8.7H71.945V20H68.945ZM80.3906 20V6H90.9706V8.64H83.3106V17.36H91.1106V20H80.3906ZM81.8706 14.14V11.58H90.0106V14.14H81.8706ZM98.3664 20L93.8264 6H96.9464L99.3264 13.6C99.4197 13.8933 99.5064 14.2067 99.5864 14.54C99.6797 14.86 99.7597 15.1933 99.8264 15.54C99.9064 15.8733 99.9731 16.1933 100.026 16.5C100.093 16.7933 100.14 17.04 100.166 17.24L99.5664 17.22C99.6731 16.74 99.7797 16.3 99.8864 15.9C99.9931 15.4867 100.1 15.0933 100.206 14.72C100.326 14.3333 100.46 13.96 100.606 13.6L102.846 8.02H105.366L107.566 13.58C107.74 13.9933 107.893 14.4133 108.026 14.84C108.16 15.2533 108.273 15.6533 108.366 16.04C108.473 16.4133 108.553 16.7733 108.606 17.12L108.066 17.2C108.106 16.9467 108.14 16.7067 108.166 16.48C108.206 16.2533 108.246 16.0267 108.286 15.8C108.326 15.56 108.373 15.3267 108.426 15.1C108.48 14.86 108.54 14.6133 108.606 14.36C108.686 14.0933 108.773 13.82 108.866 13.54L111.386 6H114.426L109.606 20H107.386L103.786 11.46L104.186 11.5L100.746 20H98.3664ZM115.095 20L121.135 6H123.955L129.975 20H126.855L123.435 11.98C123.328 11.74 123.215 11.4667 123.095 11.16C122.988 10.8533 122.875 10.54 122.755 10.22C122.648 9.9 122.541 9.58667 122.435 9.28C122.341 8.97333 122.255 8.7 122.175 8.46L122.795 8.44C122.715 8.74667 122.621 9.05333 122.515 9.36C122.421 9.65333 122.315 9.95333 122.195 10.26C122.088 10.5667 121.975 10.8667 121.855 11.16C121.735 11.4533 121.615 11.7467 121.495 12.04L118.075 20H115.095ZM117.855 17.14L118.875 14.72H126.055L126.835 17.14H117.855ZM135.743 20V13.3L135.983 14.52L129.583 6H133.203L137.983 12.54L136.643 12.5L141.103 6H144.523L138.543 14.42L138.763 13.14V20H135.743Z" fill="#999999"/>
<g clip-path="url(#clip0_97_25)">
<path d="M0 15.2393V17.766L11.6322 22.4512L23.2642 17.766V15.2393L11.6322 19.9179L0 15.2393Z" fill="#999999"/>
<path d="M11.6322 14.884L0 10.2053V12.7191L11.6322 17.4043L23.2642 12.7191V10.1924L11.6322 14.884Z" fill="#999999"/>
<path d="M23.2642 7.6787L11.6322 3L0 7.6787L11.6322 12.3638L23.2642 7.6787Z" fill="#999999"/>
</g>
<defs>
<clipPath id="clip0_97_25">
<rect width="24" height="20" fill="white" transform="translate(0 3)"/>
</clipPath>
</defs>
</svg>
